<svg xmlns="http://www.w3.org/2000/svg" width="25.463" height="25.413" viewBox="0 0 25.463 25.413"><defs><style>.a,.c{fill:#fff;}.b,.c{stroke:none;}</style></defs><g transform="translate(0.708 0.103)"><g transform="translate(0 0.603)"><g transform="translate(0 0)"><g class="a" transform="translate(0 -0.603)"><path class="b" d="M 22.65328407287598 24.95618057250977 L 22.47670555114746 24.77995109558105 L 12.02369499206543 14.34761142730713 L 1.570644974708557 24.77995109558105 L 1.394065022468567 24.95618057250977 L 1.217465043067932 24.77997016906738 L -0.1765750050544739 23.38899993896484 L -0.3539150059223175 23.21205139160156 L -0.176595002412796 23.03507995605469 L 10.27575588226318 12.60342884063721 L -0.1766050010919571 2.170970678329468 L -0.3539050221443176 1.994000673294067 L -0.1765750050544739 1.817050695419312 L 1.217465043067932 0.4260306358337402 L 1.394065022468567 0.2498106360435486 L 1.570654988288879 0.4260506331920624 L 12.02369499206543 10.85911750793457 L 22.47669410705566 0.4260506331920624 L 22.65327453613281 0.2498106360435486 L 22.82988548278809 0.4260306358337402 L 24.22397422790527 1.817050695419312 L 24.40131568908691 1.994000673294067 L 24.22399520874023 2.170970678329468 L 13.77090644836426 12.60341930389404 L 24.22399520874023 23.03507041931152 L 24.40132522583008 23.21205139160156 L 24.22397422790527 23.38899993896484 L 22.82988548278809 24.77997016906738 L 22.65328407287598 24.95618057250977 Z"/><path class="c" d="M 1.394044876098633 0.6030006408691406 L -5.7220458984375e-06 1.994020462036133 L 10.62965488433838 12.60343074798584 L -5.7220458984375e-06 23.2120304107666 L 1.394044876098633 24.60300064086914 L 12.02369499206543 13.99441051483154 L 22.65330505371094 24.60300064086914 L 24.04738426208496 23.2120304107666 L 13.41699504852295 12.60343074798584 L 24.04738426208496 1.994020462036133 L 22.65330505371094 0.6030006408691406 L 12.02369499206543 11.21234035491943 L 1.394044876098633 0.6030006408691406 M 1.394094467163086 -0.1033897399902344 L 1.747264862060547 0.2491111755371094 L 12.02369403839111 10.50590515136719 L 22.30008506774902 0.2491111755371094 L 22.65325546264648 -0.1033802032470703 L 23.00646591186523 0.2490615844726563 L 24.40054512023926 1.640081405639648 L 24.75523567199707 1.993980407714844 L 24.40058517456055 2.347921371459961 L 14.12481307983398 12.60341167449951 L 24.40057563781738 22.85811042785645 L 24.7552547454834 23.21206092834473 L 24.40054512023926 23.56598091125488 L 23.00646591186523 24.95695114135742 L 22.65326499938965 25.30936050415039 L 22.30010414123535 24.95690155029297 L 12.02369403839111 14.7008113861084 L 1.747245788574219 24.95690155029297 L 1.394084930419922 25.30937004089355 L 1.040885925292969 24.95693969726563 L -0.3531646728515625 23.56597137451172 L -0.707855224609375 23.21207046508789 L -0.3532047271728516 22.85813140869141 L 9.921860694885254 12.60342216491699 L -0.3532257080078125 2.347909927368164 L -0.7078342437744141 1.99397087097168 L -0.3531742095947266 1.640081405639648 L 1.040874481201172 0.2490615844726563 L 1.394094467163086 -0.1033897399902344 Z"/></g></g></g></g></svg>