<svg xmlns="http://www.w3.org/2000/svg" width="28.853" height="24" viewBox="0 0 28.853 24"><defs><style>.a{fill:#76a9ea;}</style></defs><path class="a" d="M28.394,37.283a11.426,11.426,0,0,1-1.989.671,6.2,6.2,0,0,0,1.637-2.607h0a.325.325,0,0,0-.476-.379h0a11.48,11.48,0,0,1-3.041,1.257.775.775,0,0,1-.19.024.806.806,0,0,1-.533-.2,6.22,6.22,0,0,0-4.116-1.553,6.651,6.651,0,0,0-1.971.3,6.026,6.026,0,0,0-4.061,4.342,6.636,6.636,0,0,0-.148,2.29.223.223,0,0,1-.056.175.231.231,0,0,1-.172.078h-.022A16.31,16.31,0,0,1,2.047,35.69h0a.325.325,0,0,0-.533.042h0a6.227,6.227,0,0,0,1.012,7.561,5.574,5.574,0,0,1-1.419-.549h0a.325.325,0,0,0-.483.28h0a6.228,6.228,0,0,0,3.633,5.738l-.133,0a5.6,5.6,0,0,1-1.048-.1h0a.325.325,0,0,0-.371.419h0a6.234,6.234,0,0,0,4.924,4.24A11.478,11.478,0,0,1,1.2,55.275H.481a.476.476,0,0,0-.466.359.493.493,0,0,0,.236.544A17.073,17.073,0,0,0,8.83,58.491a17.307,17.307,0,0,0,7.331-1.555,16.189,16.189,0,0,0,5.364-4.02,17.623,17.623,0,0,0,3.285-5.5,17.378,17.378,0,0,0,1.116-6.021V41.3a1.058,1.058,0,0,1,.4-.824A12.3,12.3,0,0,0,28.8,37.761h0a.325.325,0,0,0-.4-.478Z" transform="translate(0 -34.491)"/></svg>